Poster: 
http://img502.imageshack.us/img502/2781/tedmovieposter1.jpg


Info:

Format : AVI
Format/Info : Audio Video Interleave
File size : 1.56 GiB
Duration : 1h 46mn
Overall bit rate : 2 107 Kbps
Writing application : VirtualDubMod 1.5.10.2 (build 2540/release)
Writing library : VirtualDubMod build 2540/release

Video
ID : 0
Format : MPEG-4 Visual
Format profile : Advanced Simple@L5
Format settings, BVOP : 2
Format settings, QPel : No
Format settings, GMC : No warppoints
Format settings, Matrix : Default (H.263)
Muxing mode : Packed bitstream
Codec ID : XVID
Codec ID/Hint : XviD
Duration : 1h 46mn
Bit rate : 1 649 Kbps
Width : 720 pixels
Height : 384 pixels
Display aspect ratio : 1.85:1
Frame rate : 23.976 fps
Color space : YUV
Chroma subsampling : 4:2:0
Bit depth : 8 bits
Scan type : Progressive
Compression mode : Lossy
Bits/(Pixel*Frame) : 0.249
Stream size : 1.22 GiB (78%)
Writing library : XviD 1.2.1 (UTC 2008-12-04)

Audio
ID : 1
Format : AC-3
Format/Info : Audio Coding 3
Mode extension : CM (complete main)
Format settings, Endianness : Big
Codec ID : 2000
Duration : 1h 46mn
Bit rate mode : Constant
Bit rate : 448 Kbps
Channel(s) : 6 channels
Channel positions : Front: L C R, Side: L R, LFE
Sampling rate : 48.0 KHz
Bit depth : 16 bits
Compression mode : Lossy
Stream size : 340 MiB (21%)
Alignment : Split accross interleaves
Interleave, duration : 42 ms (1.00 video frame)
Interleave, preload duration : 500 ms


Screens:
 
http://www.pixentral.com/pics/1bj4L6pM1nPPiKo9J5Qgjn68WGx531.jpg 
http://www.pixentral.com/pics/1QKqi7pnRgJveApcOvBJsVg5748wy1.jpg 
http://www.pixentral.com/pics/13o3tjWTC2Mlw8xWzrbLfI52hFzMHT.jpg 
http://www.pixentral.com/pics/1O64pLb3IOjPNbar0Nhb6bjKhZWI0.jpg 
http://www.pixentral.com/pics/1mm5KBEmRa9oJXzQnfOmGiOI4h9d.jpg 
http://www.pixentral.com/pics/1VTWz969mjGZQGpfvOSCa1hz4XyHvH.jpg

